<?xml version="1.0" encoding="UTF-8"?>
<svg width="24px" height="24px" viewBox="0 0 24 24" version="1.1"
    xmlns="http://www.w3.org/2000/svg"
    xmlns:xlink="http://www.w3.org/1999/xlink"
    xmlns:cc="http://creativecommons.org/ns#">
    <metadata>
        <cc:Work>
            <cc:license>https://creativecommons.org/licenses/by/4.0/</cc:license>
            <cc:attributionName>Christoph Doering</cc:attributionName>
            <cc:attributionURL>http://keyboardkungfu.io</cc:attributionURL>
        </cc:Work>
    </metadata>
    <title>batteryHealth-C</title>
    <g id="batteryHealth-C" stroke="none" stroke-width="1" fill="none" fill-rule="evenodd">
        <path d="M19.2325,14.0168585 C19.9665791,14.0168585 20.6700973,14.3107773 21.186,14.833 C21.7084725,15.3487689 22.0025647,16.0523372 22.0025647,16.7865 C22.0025647,17.5206628 21.7084725,18.2242311 21.186,18.74 L17,22.926 L12.815,18.74 C12.2925275,18.2242311 11.9984353,17.5206628 11.9984353,16.7865 C11.9984353,16.0523372 12.2925275,15.3487689 12.815,14.833 C13.3307309,14.3108367 14.0340839,14.0168585 14.768,14.0168585 C15.5019161,14.0168585 16.2052691,14.3108367 16.721,14.833 L17,15.112 L17.279,14.833 C17.7949027,14.3107773 18.4984209,14.0168585 19.2325,14.0168585 Z M19.2325,16.0168585 C19.0330743,16.0168585 18.841951,16.0967068 18.6932136,16.2472136 L17,17.9404271 L15.2980492,16.238422 C15.1580186,16.0966449 14.9671015,16.0168585 14.768,16.0168585 C14.5688985,16.0168585 14.3779814,16.0966449 14.2200531,16.2563151 C14.0782527,16.3962961 13.9984353,16.5872463 13.9984353,16.7865 C13.9984353,16.9857537 14.0782527,17.1767039 14.2293825,17.3259554 L16.9994353,20.0968585 L19.7809469,17.3166849 C19.8943873,17.2047001 19.9681584,17.060095 19.9931293,16.9047145 L20.0025647,16.7865 C20.0025647,16.5872463 19.9227473,16.3962961 19.7632032,16.2385779 C19.623049,16.0967068 19.4319257,16.0168585 19.2325,16.0168585 Z M22,5 L22,13 L20,13 L20,7 L8,7 L8,17 L11.0077484,17 L11.0077484,19 L6,19 L6,5 L22,5 Z M4,8 L4,16 L2,16 L2,8 L4,8 Z" id="Shape" fill="currentColor" fill-rule="nonzero"></path>
    </g>
</svg>