<?xml version="1.0" encoding="UTF-8"?>
<svg width="24px" height="24px" viewBox="0 0 24 24" version="1.1"
    xmlns="http://www.w3.org/2000/svg"
    xmlns:xlink="http://www.w3.org/1999/xlink"
    xmlns:cc="http://creativecommons.org/ns#">
    <metadata>
        <cc:Work>
            <cc:license>https://creativecommons.org/licenses/by/4.0/</cc:license>
            <cc:attributionName>Christoph Doering</cc:attributionName>
            <cc:attributionURL>http://keyboardkungfu.io</cc:attributionURL>
        </cc:Work>
    </metadata>
    <title>batteryHealth-B</title>
    <g id="batteryHealth-B" stroke="none" stroke-width="1" fill="none" fill-rule="evenodd">
        <path d="M4,8 L4,16 L2,16 L2,8 L4,8 Z M22,5 L22,19 L6,19 L6,5 L22,5 Z M20,7 L8,7 L8,17 L20,17 L20,7 Z M16.2325,8.01685848 C16.9665791,8.01685848 17.6700973,8.3107773 18.186,8.833 C18.7084725,9.34876887 19.0025647,10.0523372 19.0025647,10.7865 C19.0025647,11.5206628 18.7084725,12.2242311 18.186,12.74 L14,16.926 L9.815,12.74 C9.29252747,12.2242311 8.99843531,11.5206628 8.99843531,10.7865 C8.99843531,10.0523372 9.29252747,9.34876887 9.815,8.833 C10.3307309,8.31083675 11.0340839,8.01685848 11.768,8.01685848 C12.5019161,8.01685848 13.2052691,8.31083675 13.721,8.833 L14,9.112 L14.279,8.833 C14.7949027,8.3107773 15.4984209,8.01685848 16.2325,8.01685848 Z M16.2325,10.0168585 C16.0330743,10.0168585 15.841951,10.0967068 15.6932136,10.2472136 L14,11.9404271 L12.2980492,10.238422 C12.1580186,10.0966449 11.9671015,10.0168585 11.768,10.0168585 C11.5688985,10.0168585 11.3779814,10.0966449 11.2200531,10.2563151 C11.0782527,10.3962961 10.9984353,10.5872463 10.9984353,10.7865 C10.9984353,10.9857537 11.0782527,11.1767039 11.2293825,11.3259554 L13.9994353,14.0968585 L16.7809469,11.3166849 C16.8943873,11.2047001 16.9681584,11.060095 16.9931293,10.9047145 L17.0025647,10.7865 C17.0025647,10.5872463 16.9227473,10.3962961 16.7632032,10.2385779 C16.623049,10.0967068 16.4319257,10.0168585 16.2325,10.0168585 Z" id="Shape" fill="currentColor"></path>
    </g>
</svg>