<?xml version="1.0" encoding="UTF-8"?>
<svg width="24px" height="24px" viewBox="0 0 24 24" version="1.1"
    xmlns="http://www.w3.org/2000/svg"
    xmlns:xlink="http://www.w3.org/1999/xlink"
    xmlns:cc="http://creativecommons.org/ns#">
    <metadata>
        <cc:Work>
            <cc:license>https://creativecommons.org/licenses/by/4.0/</cc:license>
            <cc:attributionName>Christoph Doering</cc:attributionName>
            <cc:attributionURL>http://keyboardkungfu.io</cc:attributionURL>
        </cc:Work>
    </metadata>
    <title>batteryHealth-E</title>
    <g id="batteryHealth-E" stroke="none" stroke-width="1" fill="none" fill-rule="evenodd">
        <path d="M4,8 L4,16 L2,16 L2,8 L4,8 Z M19.0170447,11 L19.0170447,14 L22.0170447,14 L22.0170447,19 L19.0170447,19 L19.0170447,22 L14.0170447,22 L14.0170447,19 L11.0170447,19 L11.0170447,14 L14.0170447,14 L14.0170447,11 L19.0170447,11 Z M17.0170447,13 L16.0170447,13 L16.0170447,16 L13.0170447,16 L13.0170447,17 L16.0170447,17 L16.0170447,20 L17.0170447,20 L17.0170447,17 L20.0170447,17 L20.0170447,16 L17.0170447,16 L17.0170447,13 Z M22,5 L22,13 L20,13 L20,7 L8,7 L8,17 L10.0077484,17 L10.0077484,19 L6,19 L6,5 L22,5 Z" id="Shape" fill="currentColor"></path>
    </g>
</svg>