<svg xmlns="http://www.w3.org/2000/svg" width="512" height="512" viewBox="0 0 512 512"><path fill-rule="evenodd" d="M256,-1.42108547e-14 C314.910373,-1.42108547e-14 362.666667,47.7562934 362.666667,106.666667 C362.666667,107.563566 362.655597,108.45788 362.633587,109.34948 C399.454306,118.806817 426.666667,152.225515 426.666667,192 C426.666667,239.128299 388.461632,277.333333 341.333333,277.333333 L117.333333,277.333333 C52.5319227,277.333333 3.94950788e-14,224.801411 3.55271368e-14,160 C2.75912528e-14,95.1985894 52.5319227,42.6666667 117.333333,42.6666667 C133.980113,42.6666667 149.817204,46.1333553 164.162052,52.384178 C182.732693,21.026092 216.910893,-1.42108547e-14 256,-1.42108547e-14 Z M262.250667,91.6693333 L213.333333,140.586667 L164.416,91.6693333 L134.250667,121.834667 L183.168,170.752 L134.250667,221.802667 L164.416,251.968 L213.333333,200.917333 L262.250667,249.834667 L292.416,219.669333 L243.498667,170.752 L292.416,121.834667 L262.250667,91.6693333 Z" transform="translate(42.667 106.667)"/></svg>