<svg xmlns="http://www.w3.org/2000/svg" width="24" height="24" viewBox="0 0 24 24"><path fill-rule="evenodd" d="M4.207107,2.79289322 L4.705,3.29089322 L20.7473873,19.3442362 L20.753,19.3388932 L21.207107,19.7928932 L19.7928932,21.207107 L17.0175079,18.4317894 C15.6521351,19.3552327 13.9872594,20 12,20 C5.36206897,20 2.32104637,12.8061831 2.02421686,12.0619952 L2.00268051,12.0070524 C2,12 3.07133391,9.14310956 5.42740714,6.84381503 L2.79289322,4.207107 L4.207107,2.79289322 Z M12,4 C19,4 22,12 22,12 L21.9757831,12.0619952 C21.8443282,12.3915688 21.1746602,13.9860953 19.8927139,15.6605333 L15.3999968,11.1658974 C15.0913023,9.90325694 14.0976,8.90930321 12.8351013,8.60024753 L8.82704536,4.59323994 C9.77654814,4.22248118 10.8326538,4 12,4 Z M8.5,12 C8.5,13.9329966 10.0670034,15.5 12,15.5 C12.6023283,15.5 13.1691198,15.3478492 13.6640373,15.0798849 L12.0816997,13.4978129 C12.0546507,13.4992647 12.0274112,13.5 12,13.5 C11.1715729,13.5 10.5,12.8284271 10.5,12 L10.503,11.9178932 L8.92011506,10.3359627 C8.6521508,10.8308802 8.5,11.3976717 8.5,12 Z"/></svg>