<svg xmlns="http://www.w3.org/2000/svg" width="512" height="512" viewBox="0 0 512 512"><path fill-rule="evenodd" d="M42.666,64 L42.6666667,298.666667 L341.333333,298.666667 L341.333333,106.666667 L277.333,106.666 L277.333,64 L384,64 L384,341.333333 L213.333,341.333 L213.333,384 L277.333333,384 L277.333333,426.666667 L106.666667,426.666667 L106.666667,384 L170.666,384 L170.666,341.333 L1.42108547e-14,341.333333 L1.42108547e-14,64 L42.666,64 Z M224,170.666667 L170.7584,223.908267 C170.408533,224.258133 170.0672,224.599467 169.7344,224.932267 L162.8224,231.844267 C162.6432,232.023467 162.472533,232.194133 162.3104,232.356267 L160,234.666667 L157.6896,232.356267 C157.527467,232.194133 157.3568,232.023467 157.1776,231.844267 L150.2656,224.932267 C149.9328,224.599467 149.591467,224.258133 149.2416,223.908267 L97.2736,171.940267 C96.8512,171.517867 96.4266667,171.093333 96,170.666667 L224,170.666667 Z M256,7.10542736e-15 L256,149.333333 L64,149.333333 L64,7.10542736e-15 L256,7.10542736e-15 Z M213.333333,64 L106.666667,64 L106.666667,106.666667 L213.333333,106.666667 L213.333333,64 Z" transform="translate(64 42.667)"/></svg>