<svg xmlns="http://www.w3.org/2000/svg" width="512" height="512" viewBox="0 0 512 512"><path fill-rule="evenodd" d="M7.10542736e-15,234.574418 L86.744527,114.224663 L4.30411775,-2.84217094e-14 L65.7205672,-2.84217094e-14 L120.349754,76.4808616 L175.641113,-2.84217094e-14 L236.064304,-2.84217094e-14 L150.809664,115.549007 L237.057562,234.574418 L173.323511,234.574418 L117.701066,156.272583 L62.4097074,234.574418 L7.10542736e-15,234.574418 Z M252.855515,307.413333 L252.855515,130.282334 C252.855515,98.4980793 252.303705,75.3772417 251.200085,60.9198205 L300.69744,60.9198205 L302.35287,83.1025812 C310.740381,73.3907258 318.824397,66.5758727 326.604918,62.6580219 C334.385438,58.7401711 343.683436,56.7812457 354.498912,56.7812457 C378.447464,56.7812457 396.49165,65.8309292 408.631469,83.9302962 C419.998755,100.926043 425.682397,122.501813 425.682397,148.657605 C425.682397,176.910276 419.17104,199.203399 406.148325,215.536974 C393.787781,230.987653 376.847215,238.712992 355.326627,238.712992 C333.254228,238.712992 316.148119,230.325481 304.008299,213.550458 L304.008299,307.413333 L252.855515,307.413333 Z M305.714966,172.826882 C310.681256,181.766204 316.392489,188.663828 322.848666,193.519756 C329.304842,198.375684 336.009333,200.803647 342.962139,200.803647 C353.00508,200.803647 360.785601,195.561453 366.303701,185.077063 C371.8218,174.592674 374.58085,161.845864 374.58085,146.836633 C374.58085,132.048125 371.766619,119.742763 366.138158,109.920546 C360.399334,99.7672423 352.011822,94.6905906 340.975623,94.6905906 C328.504718,94.6905906 316.751165,103.409188 305.714966,120.846383 L305.714966,172.826882 Z" transform="translate(45.76 106.667)"/></svg>