<svg xmlns="http://www.w3.org/2000/svg" width="512" height="512" viewBox="0 0 512 512"><path fill-rule="evenodd" d="M161.858334,0 C134.201118,30.3489271 117.333333,70.6951454 117.333333,114.981046 C117.333333,209.237643 193.743403,285.647713 288,285.647713 C317.070765,285.647713 344.443899,278.379293 368.401251,265.560605 C339.001268,333.83355 271.084432,381.647713 192,381.647713 C85.961328,381.647713 0,295.686384 0,189.647713 C0,93.8639009 70.1388736,14.461901 161.858334,0 Z M75.4986667,96.192 C54.8695347,121.991232 42.6666667,154.535266 42.6666667,189.647713 C42.6666667,272.122235 109.525477,338.981046 192,338.981046 C213.366675,338.981046 233.900284,334.453696 252.54719,326.184213 L253.824,325.568 L252.823801,325.428037 C153.647969,308.97381 77.5836695,224.109339 74.748625,120.952349 L74.6666667,114.981046 C74.6666667,110.084745 74.832727,105.21342 75.1613736,100.373676 L75.4986667,96.192 Z" transform="translate(64 66.352)"/></svg>