<svg xmlns="http://www.w3.org/2000/svg" width="512" height="512" viewBox="0 0 512 512"><path fill-rule="evenodd" d="M362.666667,256 L362.666,320 L426.666667,320 L426.666667,362.666667 L362.666,362.666 L362.666667,426.666667 L320,426.666667 L320,362.666 L256,362.666667 L256,320 L320,320 L320,256 L362.666667,256 Z M170.666667,0 L341.333333,170.666667 L170.666667,341.333333 L0,170.666667 L0,0 L170.666667,0 Z M96,64 C78.326888,64 64,78.326888 64,96 C64,113.673112 78.326888,128 96,128 C113.673112,128 128,113.673112 128,96 C128,78.326888 113.673112,64 96,64 Z" transform="translate(64 64)"/></svg>