<svg xmlns="http://www.w3.org/2000/svg" width="512" height="512" viewBox="0 0 512 512"><path fill-rule="evenodd" d="M15.2917333,0 L249.95776,0 L356.624427,106.666667 L356.624427,234.666667 L313.95776,234.666667 L313.95776,124.373333 L232.251093,42.6666667 L57.9584,42.6666667 L57.9584,234.666667 L15.2917333,234.666667 L15.2917333,0 Z M0,300.1664 L0,277.5744 L103.530667,277.5744 L103.530667,300.1664 L65.92,300.1664 L65.92,405.7024 L37.056,405.7024 L37.056,300.1664 L0,300.1664 Z M186.96256,319.345067 L217.17056,277.5744 L250.173227,277.5744 L203.623893,340.699733 L250.70656,405.7024 L215.911893,405.7024 L185.533227,362.929067 L155.303893,405.7024 L121.2352,405.7024 L168.615893,339.9744 L123.581867,277.5744 L157.13856,277.5744 L186.96256,319.345067 Z M269.29856,277.5744 L269.29856,300.1664 L306.375893,300.1664 L306.375893,405.7024 L335.239893,405.7024 L335.239893,300.1664 L372.829227,300.1664 L372.829227,277.5744 L269.29856,277.5744 Z" transform="translate(70.042 42.667)"/></svg>