<svg xmlns="http://www.w3.org/2000/svg" width="512" height="512" viewBox="0 0 512 512"><path fill-rule="evenodd" d="M362.666667,213.333333 L362.666667,234.666667 L426.666667,234.666667 L426.666667,277.333333 L405.333333,277.333333 L405.333333,426.666667 L256,426.666667 L256,277.333333 L234.666667,277.333333 L234.666667,234.666667 L298.666667,234.666667 L298.666667,213.333333 L362.666667,213.333333 Z M384,1.42108547e-14 L384,192 L341.333,192 L341.333333,42.6666667 L42.6666667,42.6666667 L42.6666667,256 L213.333,255.999 L213.333,405.333 L85.3333333,405.333333 L85.3333333,362.666667 L170.666,362.666 L170.666,298.666 L4.26325641e-14,298.666667 L4.26325641e-14,1.42108547e-14 L384,1.42108547e-14 Z M320,288 L293.333333,288 L293.333333,384 L320,384 L320,288 Z M368,288 L341.333333,288 L341.333333,384 L368,384 L368,288 Z M213.333333,85.3333333 L213.333333,192 L85.3333333,192 L85.3333333,85.3333333 L213.333333,85.3333333 Z M170.666667,128 L128,128 L128,149.333333 L170.666667,149.333333 L170.666667,128 Z" transform="translate(64 64)"/></svg>