<svg xmlns="http://www.w3.org/2000/svg" width="512" height="512" viewBox="0 0 512 512"><path fill-rule="evenodd" d="M384,149.333333 L384,362.666667 C312.888889,362.666667 248.888889,384 192,426.666667 C135.111111,384 71.1111111,362.666667 1.42108547e-14,362.666667 L1.42108547e-14,149.333333 C71.1111111,149.333333 135.111111,170.666667 192,213.333333 C248.888889,170.666667 312.888889,149.333333 384,149.333333 Z M341.333333,195.072 L334.875327,196.101308 C292.521401,203.400626 253.602511,220.464784 217.6,247.466667 L192,266.666667 L166.4,247.466667 C130.397489,220.464784 91.4785989,203.400626 49.1246731,196.101308 L42.6666667,195.072 L42.6666667,322.389333 L47.311741,322.915715 C96.8124892,329.132073 143.188071,345.276193 186.085038,371.230259 L191.978667,374.890667 L197.914962,371.230259 C240.811929,345.276193 287.187511,329.132073 336.688259,322.915715 L341.333333,322.389333 L341.333333,195.072 Z M192,7.10542736e-15 C239.128299,7.10542736e-15 277.333333,38.2050347 277.333333,85.3333333 C277.333333,132.461632 239.128299,170.666667 192,170.666667 C144.871701,170.666667 106.666667,132.461632 106.666667,85.3333333 C106.666667,38.2050347 144.871701,7.10542736e-15 192,7.10542736e-15 Z M192,42.6666667 C168.435851,42.6666667 149.333333,61.769184 149.333333,85.3333333 C149.333333,108.897483 168.435851,128 192,128 C215.564149,128 234.666667,108.897483 234.666667,85.3333333 C234.666667,61.769184 215.564149,42.6666667 192,42.6666667 Z" transform="translate(64 42.667)"/></svg>