<svg xmlns="http://www.w3.org/2000/svg" width="512" height="512" viewBox="0 0 512 512"><path fill-rule="evenodd" d="M358.165333,251.52 L388.330667,281.685333 L328.746667,341.269333 L388.330667,400.853333 L358.165333,431.018667 L298.581333,371.434667 L238.997333,431.018667 L208.832,400.853333 L268.416,341.269333 L208.832,281.685333 L238.997333,251.52 L298.581333,311.104 L358.165333,251.52 Z M186.666667,192 C238.424331,192 281.982064,228.11117 294.82458,277.174933 L238.997324,221.350111 L178.662101,281.685333 L238.246101,341.269333 L195.516,383.999 L7.10542736e-15,384 L7.10542736e-15,307.2 C7.10542736e-15,245.167377 47.6682427,194.586369 107.383368,192.096089 L112,192 L186.666667,192 Z M149.333333,7.10542736e-15 C190.570595,7.10542736e-15 224,33.4294053 224,74.6666667 C224,114.529353 192.762078,147.096031 153.430084,149.222851 L149.333333,149.333333 C108.096072,149.333333 74.6666667,115.903928 74.6666667,74.6666667 C74.6666667,34.8039807 105.904589,2.23730242 145.236582,0.110482405 L149.333333,7.10542736e-15 Z" transform="translate(42.667 42.667)"/></svg>