<svg width="24" height="24" viewBox="0 0 24 24" fill="none" xmlns="http://www.w3.org/2000/svg">
<path d="M17.5 13C19.9853 13 22 15.0147 22 17.5C22 19.9853 19.9853 22 17.5 22C15.0147 22 13 19.9853 13 17.5C13 15.0147 15.0147 13 17.5 13ZM17.5 16.6162L15.6924 14.8076L14.8076 15.6924L16.6162 17.5L14.8076 19.3076L15.6924 20.1924L17.5 18.3838L19.3076 20.1924L20.1924 19.3076L18.3838 17.5L20.1924 15.6924L19.3076 14.8076L17.5 16.6162ZM21 9.08594V13.2568C20.0491 12.4716 18.8296 12 17.5 12C16.3234 12 15.2342 12.3708 14.3398 13H8.41406L7 14.4141V17H3V9.08594L6.08594 6H17.9141L21 9.08594Z" fill="black"/>
</svg>
