<svg width="24" height="24" viewBox="0 0 24 24" fill="none" xmlns="http://www.w3.org/2000/svg">
<path d="M21 6.58594V17.4141L17.4141 21H6.58594L3 17.4141V6.58594L6.58594 3H17.4141L21 6.58594ZM5 7.41406V16.5859L7.41406 19H16.5859L19 16.5859V7.41406L16.5859 5H7.41406L5 7.41406ZM14.7471 9.15039C15.0112 9.15039 15.2522 9.17482 15.4688 9.22461C15.685 9.27223 15.9304 9.35819 16.2051 9.48145L15.8584 10.2607C15.4926 10.0615 15.1412 9.96191 14.8057 9.96191C14.401 9.96197 14.0912 10.1009 13.877 10.3779C13.652 10.6679 13.5391 11.0513 13.5391 11.5273C13.5391 12.0208 13.6577 12.4074 13.8936 12.6865C14.1295 12.9635 14.4556 13.1016 14.8711 13.1016C15.0593 13.1015 15.2327 13.0771 15.3906 13.0273C15.5486 12.9753 15.7399 12.8821 15.9648 12.748L16.2666 13.5762C15.9941 13.7082 15.7561 13.7973 15.5527 13.8428C15.3493 13.8903 15.0983 13.914 14.7998 13.9141C14.3496 13.9141 13.977 13.8486 13.6826 13.7188C13.2714 13.537 12.9609 13.2501 12.751 12.8584C12.5626 12.5077 12.4678 12.0787 12.4678 11.5723C12.4679 10.7174 12.7294 10.0703 13.251 9.63086C13.6297 9.31074 14.1283 9.15045 14.7471 9.15039ZM12.4678 10.0439H11.1172V13.834H10.0811V10.0439H8.75V9.23242H12.4678V10.0439Z" fill="black"/>
</svg>
