<svg width="24" height="24" viewBox="0 0 24 24" fill="none" xmlns="http://www.w3.org/2000/svg">
<path d="M21 6.58594V17.4141L17.4141 21H6.58594L3 17.4141V6.58594L6.58594 3H17.4141L21 6.58594ZM12.8359 9.09473C12.2169 9.09474 11.7176 9.25484 11.3389 9.5752C10.8174 10.0146 10.5567 10.6617 10.5566 11.5166C10.5566 12.0231 10.6505 12.452 10.8389 12.8027C11.0488 13.1945 11.3602 13.4812 11.7715 13.6631C12.0658 13.7927 12.4377 13.8584 12.8877 13.8584C13.1864 13.8584 13.4381 13.8337 13.6416 13.7861C13.845 13.7406 14.083 13.6524 14.3555 13.5205L14.0537 12.6924C13.8285 12.8266 13.6366 12.9198 13.4785 12.9717C13.3206 13.0214 13.1471 13.0459 12.959 13.0459C12.5438 13.0458 12.2183 12.9076 11.9824 12.6309C11.7466 12.3516 11.628 11.965 11.6279 11.4717C11.6279 10.9956 11.7409 10.6123 11.9658 10.3223C12.1801 10.0452 12.4897 9.90625 12.8945 9.90625C13.23 9.90625 13.5805 10.006 13.9463 10.2051L14.2939 9.42578C14.019 9.30239 13.773 9.21657 13.5566 9.16895C13.3402 9.11921 13.0999 9.09473 12.8359 9.09473ZM14.6885 10.3721L15.9746 12.0469L14.6006 13.7783H15.7178L16.5459 12.6836L17.3154 13.7783H18.4551L17.1074 12.0215L18.4355 10.3721H17.3154L16.5459 11.3975L15.835 10.3721H14.6885ZM6.66992 9.17676V9.98828H8.00098V13.7773H9.03711V9.98828H10.3877V9.17676H6.66992Z" fill="black"/>
</svg>
