<svg width="512" height="512" viewBox="0 0 512 512" fill="none" xmlns="http://www.w3.org/2000/svg">
<path fill-rule="evenodd" clip-rule="evenodd" d="M341.333 195.842V65.5123C413.702 75.8637 469.333 138.102 469.333 213.333C469.333 226.895 467.526 240.032 464.139 252.521L341.333 195.842ZM320 202.667V64C260.429 64.0002 209.005 98.8813 185.038 149.333H298.667V277.333H426.667V317.845C439.364 304.887 449.719 289.626 457.048 272.745L326.197 212.352L320 209.492V202.667ZM149.333 85.3333H42.6667V426.667H149.333V85.3333ZM277.333 170.667H170.667V426.667H277.333V170.667ZM298.667 298.667H405.333V426.667H298.667V298.667Z" fill="white"/>
</svg>
