<svg width="512" height="512" viewBox="0 0 512 512" fill="none" xmlns="http://www.w3.org/2000/svg">
<path fill-rule="evenodd" clip-rule="evenodd" d="M234.657 149.333C250.044 128.849 272.634 114.085 298.665 108.8V213.333V226.517L310.458 232.414L400.295 277.333H426.665V298.667H362.667V426.667H426.667V317.844V298.667V277.333H454.961C464.176 257.936 469.332 236.237 469.332 213.333C469.332 130.859 402.473 64 319.999 64C260.427 64 209.004 98.8811 185.036 149.333H234.657ZM341.332 200.149L423.041 241.003C425.404 232.179 426.665 222.903 426.665 213.333C426.665 161.729 390.021 118.684 341.332 108.8V200.149ZM42.6667 85.3333H106.667V426.667H42.6667V85.3333ZM213.333 170.667H149.333V426.667H213.333V170.667ZM256 298.667H320V426.667H256V298.667Z" fill="white"/>
</svg>
