<svg width="512" height="512" viewBox="0 0 512 512" fill="none" xmlns="http://www.w3.org/2000/svg">
<path fill-rule="evenodd" clip-rule="evenodd" d="M405.333 191.999C405.333 192.895 405.322 193.788 405.3 194.679C442.122 204.14 469.333 237.558 469.333 277.332C469.333 324.46 431.128 362.665 384 362.665H344.886L379.594 319.999H304.658L325.992 234.665H206.512L180.912 362.665H160C95.1986 362.665 42.6667 310.133 42.6667 245.332C42.6667 180.531 95.1986 127.999 160 127.999C176.646 127.999 192.482 131.465 206.826 137.715C225.401 106.357 259.578 85.332 298.667 85.332C357.577 85.332 405.333 133.088 405.333 191.999ZM277.333 341.332L298.667 255.999H224L202.667 362.665H245.333L213.319 490.665L330.667 341.332H277.333Z" fill="white"/>
</svg>
