<svg width="512" height="512" viewBox="0 0 512 512" fill="none" xmlns="http://www.w3.org/2000/svg">
<path fill-rule="evenodd" clip-rule="evenodd" d="M405.333 170.667C405.333 111.756 357.577 64 298.667 64C259.575 64 225.395 85.0287 206.845 116.391C192.496 110.136 176.653 106.667 160 106.667C95.1987 106.667 42.6667 159.199 42.6667 224C42.6667 285.209 89.5351 335.471 149.342 340.856L149.333 341.333L260.412 341.351C264.889 325.511 272.61 311.031 282.812 298.676L156.693 298.667L153.168 298.361L149.244 297.903C112.925 292.689 85.3334 261.37 85.3334 224C85.3334 182.763 118.763 149.333 160 149.333C170.438 149.333 180.5 151.451 189.795 155.503L224.368 170.575L243.569 138.112L245.823 134.569C257.619 117.292 277.197 106.667 298.667 106.667C334.013 106.667 362.667 135.32 362.667 170.667L361.809 206.237L394.693 214.677L397.927 215.646C414.862 221.467 426.667 237.566 426.667 256C426.667 260.144 426.074 264.155 424.949 267.933C438.326 274.496 450.27 283.531 460.192 294.467C466.039 282.908 469.333 269.839 469.333 256C469.333 216.221 442.115 182.799 405.3 173.35L405.333 170.667ZM373.333 277.333C320.314 277.333 277.333 320.314 277.333 373.333C277.333 426.353 320.314 469.333 373.333 469.333C426.353 469.333 469.333 426.353 469.333 373.333C469.333 320.314 426.353 277.333 373.333 277.333ZM354.478 373.334L315.906 334.762L334.763 315.906L373.334 354.478L411.906 315.906L430.763 334.762L392.191 373.334L430.763 411.906L411.906 430.762L373.334 392.191L334.763 430.762L315.906 411.906L354.478 373.334Z" fill="black"/>
</svg>
