<svg width="512" height="512" viewBox="0 0 512 512" fill="none" xmlns="http://www.w3.org/2000/svg">
<path fill-rule="evenodd" clip-rule="evenodd" d="M298.667 64.0004C357.577 64.0004 405.334 111.757 405.334 170.667C405.334 171.564 405.323 172.458 405.301 173.35C442.121 182.807 469.334 216.226 469.334 256C469.334 269.834 466.042 282.9 460.198 294.455C438.734 270.832 407.766 256 373.333 256C319.625 256 274.346 292.085 260.417 341.334H160C95.1989 341.334 42.667 288.802 42.667 224C42.667 159.199 95.1989 106.667 160 106.667C176.647 106.667 192.484 110.134 206.829 116.385C225.4 85.0265 259.578 64.0004 298.667 64.0004ZM373.333 277.333C320.314 277.333 277.333 320.314 277.333 373.333C277.333 426.353 320.314 469.333 373.333 469.333C426.353 469.333 469.333 426.353 469.333 373.333C469.333 320.314 426.353 277.333 373.333 277.333ZM354.478 373.334L315.906 334.762L334.762 315.906L373.334 354.478L411.906 315.906L430.762 334.762L392.191 373.334L430.762 411.906L411.906 430.762L373.334 392.191L334.762 430.762L315.906 411.906L354.478 373.334Z" fill="black"/>
</svg>
