<svg width="512" height="512" viewBox="0 0 512 512" fill="none" xmlns="http://www.w3.org/2000/svg">
<path d="M181.783 151.35L100.183 69.6758L70.0134 99.8457L124.829 154.694C77.2108 169.636 42.6667 214.116 42.6667 266.665C42.6667 327.873 89.5351 378.135 149.342 383.52L149.333 383.998L353.941 383.98L411.596 441.683L441.766 411.513L410.176 379.905L410.221 379.894L371.691 341.331L371.605 341.313L231.531 201.11L231.552 201.086L181.91 151.374L181.783 151.35Z" fill="white"/>
<path d="M405.333 213.331C405.333 154.421 357.577 106.665 298.667 106.665C270.602 106.665 245.068 117.503 226.033 135.223L446.966 356.26C460.858 341.081 469.333 320.863 469.333 298.665C469.333 258.886 442.115 225.464 405.3 216.015L405.333 213.331Z" fill="white"/>
</svg>
