<svg width="512" height="512" viewBox="0 0 512 512" fill="none" xmlns="http://www.w3.org/2000/svg">
<path fill-rule="evenodd" clip-rule="evenodd" d="M405.333 191.999C405.333 133.088 357.577 85.332 298.667 85.332C259.575 85.332 225.395 106.361 206.845 137.723C192.496 131.468 176.653 127.999 160 127.999C95.1986 127.999 42.6667 180.531 42.6667 245.332C42.6667 310.133 95.1986 362.665 160 362.665H180.912L189.446 319.999H160C118.763 319.999 85.3333 286.569 85.3333 245.332C85.3333 204.095 118.763 170.665 160 170.665C170.438 170.665 180.5 172.783 189.795 176.835L224.368 191.907L243.569 159.444C255.018 140.088 275.765 127.999 298.667 127.999C334.013 127.999 362.667 156.652 362.667 191.999L361.808 227.569L394.693 236.009C413.34 240.795 426.667 257.746 426.667 277.332C426.667 300.896 407.564 319.999 384 319.999H379.594L344.886 362.665H384C431.128 362.665 469.333 324.46 469.333 277.332C469.333 237.553 442.115 204.131 405.3 194.682L405.333 191.999ZM277.333 341.332L298.667 255.999H224L202.667 362.665H245.333L213.319 490.665L330.667 341.332H277.333Z" fill="white"/>
</svg>
