<svg width="512" height="512" viewBox="0 0 512 512" fill="none" xmlns="http://www.w3.org/2000/svg">
<path fill-rule="evenodd" clip-rule="evenodd" d="M100.183 69.6758L181.783 151.35C181.826 151.358 181.868 151.366 181.91 151.374L231.552 201.086L231.531 201.11L371.605 341.313L371.691 341.331L410.221 379.894L410.176 379.905L441.766 411.513L411.596 441.683L353.941 383.98L149.333 383.998L149.342 383.52C89.5351 378.135 42.6667 327.873 42.6667 266.665C42.6667 214.116 77.2108 169.636 124.829 154.694L70.0134 99.8457L100.183 69.6758ZM298.667 106.665C357.577 106.665 405.333 154.421 405.333 213.331L405.3 216.015C442.115 225.464 469.333 258.886 469.333 298.665C469.333 320.863 460.858 341.081 446.966 356.26L416.726 326.04C422.935 318.619 426.667 309.062 426.667 298.665C426.667 280.231 414.862 264.131 397.927 258.311L394.693 257.342L361.809 248.902L362.667 213.331C362.667 177.985 334.013 149.331 298.667 149.331C282.658 149.331 267.702 155.239 256.238 165.406L226.033 135.223C245.068 117.503 270.602 106.665 298.667 106.665ZM160 191.998C118.763 191.998 85.3334 225.427 85.3334 266.665C85.3334 304.034 112.925 335.353 149.244 340.568L153.168 341.026L156.693 341.331L311.296 341.313L162.164 192.029C161.444 192.008 160.723 191.998 160 191.998Z" fill="white"/>
</svg>
