<svg width="512" height="512" viewBox="0 0 512 512" fill="none" xmlns="http://www.w3.org/2000/svg">
<path fill-rule="evenodd" clip-rule="evenodd" d="M405.333 170.667C405.333 111.756 357.577 64 298.667 64C259.575 64 225.395 85.0287 206.845 116.391C192.496 110.136 176.653 106.667 160 106.667C95.1984 106.667 42.6665 159.199 42.6665 224C42.6665 285.209 89.5349 335.471 149.342 340.856L149.333 341.333L260.412 341.351C264.889 325.511 272.61 311.031 282.812 298.676L156.693 298.667L153.168 298.361L149.244 297.903C112.924 292.689 85.3332 261.37 85.3332 224C85.3332 182.763 118.763 149.333 160 149.333C170.437 149.333 180.5 151.451 189.795 155.503L224.368 170.575L243.569 138.112L245.823 134.569C257.619 117.292 277.196 106.667 298.667 106.667C334.013 106.667 362.667 135.32 362.667 170.667L361.808 206.237L394.693 214.677L397.927 215.646C414.862 221.467 426.667 237.566 426.667 256C426.667 260.144 426.074 264.155 424.949 267.933C438.325 274.496 450.27 283.531 460.192 294.467C466.039 282.908 469.333 269.839 469.333 256C469.333 216.221 442.114 182.799 405.3 173.35L405.333 170.667ZM373.333 277.333C320.314 277.333 277.333 320.314 277.333 373.333C277.333 426.353 320.314 469.333 373.333 469.333C426.352 469.333 469.333 426.353 469.333 373.333C469.333 320.314 426.352 277.333 373.333 277.333ZM436.096 340.096L352.001 424.191L310.573 382.762L329.429 363.906L352.001 386.478L417.239 321.24L436.096 340.096Z" fill="black"/>
</svg>
