<svg width="512" height="512" viewBox="0 0 512 512" fill="none" xmlns="http://www.w3.org/2000/svg">
<path fill-rule="evenodd" clip-rule="evenodd" d="M405.3 194.679C405.322 193.788 405.333 192.895 405.333 191.999C405.333 133.088 357.577 85.332 298.667 85.332C259.578 85.332 225.401 106.357 206.826 137.715C192.482 131.465 176.646 127.999 160 127.999C95.1986 127.999 42.6667 180.531 42.6667 245.332C42.6667 306.538 89.5307 356.798 149.333 362.187V277.332H234.667V319.999H277.333V277.332H362.667V362.665H384C431.128 362.665 469.333 324.46 469.333 277.332C469.333 237.558 442.122 204.14 405.3 194.679ZM170.667 298.665H213.333V426.665H170.667V298.665ZM277.333 341.332H234.667V469.332H277.333V341.332ZM298.667 298.665H341.333V426.665H298.667V298.665Z" fill="white"/>
</svg>
