<svg width="512" height="512" viewBox="0 0 512 512" fill="none" xmlns="http://www.w3.org/2000/svg">
<path fill-rule="evenodd" clip-rule="evenodd" d="M405.3 194.68C405.322 193.789 405.333 192.896 405.333 192C405.333 133.09 357.577 85.3334 298.667 85.3334C259.578 85.3334 225.401 106.359 206.826 137.716C192.482 131.466 176.646 128 160 128C95.1986 128 42.6666 180.532 42.6666 245.333C42.6666 292.219 70.1672 332.682 109.918 351.472C119.265 320.901 147.702 298.667 181.333 298.667C193.763 298.667 205.483 301.704 215.792 307.076C214.188 300.987 213.333 294.593 213.333 288C213.333 246.763 246.763 213.333 288 213.333C329.237 213.333 362.667 246.763 362.667 288C362.667 311.363 351.936 332.22 335.135 345.911C345.133 349.593 354.125 355.353 361.589 362.667H384C431.128 362.667 469.333 324.462 469.333 277.333C469.333 237.56 442.122 204.141 405.3 194.68ZM306.475 277.227L323.904 247.039L305.428 236.372L287.999 266.56L270.57 236.372L252.095 247.039L269.524 277.227H234.667V298.56H269.524L252.095 328.748L270.57 339.415L287.999 309.227L305.428 339.415L323.904 328.748L306.474 298.56H341.333V277.227H306.475ZM217.237 332.372L199.808 362.56H234.667V383.893H199.808L217.237 414.082L198.762 424.748L181.333 394.56L163.904 424.748L145.428 414.082L162.858 383.893H128V362.56H162.857L145.428 332.372L163.904 321.706L181.333 351.894L198.762 321.706L217.237 332.372ZM327.808 405.227L345.237 375.039L326.762 364.372L309.333 394.56L291.904 364.372L273.428 375.039L290.857 405.227H256V426.56H290.858L273.428 456.748L291.904 467.415L309.333 437.227L326.762 467.415L345.237 456.748L327.808 426.56H362.667V405.227H327.808Z" fill="white"/>
</svg>
