<svg width="512" height="512" viewBox="0 0 512 512" fill="none" xmlns="http://www.w3.org/2000/svg">
<path fill-rule="evenodd" clip-rule="evenodd" d="M415.659 362.678C436.087 332.166 448 295.473 448 255.997C448 149.959 362.039 63.9974 256 63.9974V106.664C338.475 106.664 405.333 173.523 405.333 255.997C405.333 286.701 396.067 315.24 380.179 338.971L415.659 362.678ZM256 469.331C373.821 469.331 469.333 373.818 469.333 255.997C469.333 138.177 373.821 42.6641 256 42.6641C138.179 42.6641 42.6667 138.177 42.6667 255.997C42.6667 373.818 138.179 469.331 256 469.331ZM256 383.997C326.692 383.997 384 326.69 384 255.997C384 185.305 326.692 127.997 256 127.997C185.308 127.997 128 185.305 128 255.997C128 326.69 185.308 383.997 256 383.997Z" fill="white"/>
</svg>
