<svg width="24" height="24" viewBox="0 0 24 24" fill="none" xmlns="http://www.w3.org/2000/svg">
<path fill-rule="evenodd" clip-rule="evenodd" d="M7.19411 10.6404L7.6399 10.1946L8.41667 7.86636L5.81191 5.26391C6.34382 5.09255 6.9111 5 7.5 5C10.5376 5 13 7.46243 13 10.5C13 11.0711 12.913 11.6219 12.7514 12.1398L18.252 17.6404C19.2494 18.6377 19.2494 20.2547 18.252 21.252C17.2547 22.2493 15.6378 22.2493 14.6404 21.252L9.13983 15.7514C8.62192 15.9129 8.07112 16 7.5 16C4.46243 16 2 13.5376 2 10.5C2 9.9138 2.09171 9.34902 2.26156 8.81922L4.86321 11.4167L7.19411 10.6404ZM19 7.5C19.6904 7.5 20.25 6.94036 20.25 6.25C20.25 5.55964 19.6904 5 19 5C18.3096 5 17.75 5.55964 17.75 6.25C17.75 6.94036 18.3096 7.5 19 7.5ZM20 15.25V9.25H18V15.25H20Z" fill="black"/>
</svg>
