<svg width="24" height="24" viewBox="0 0 24 24" fill="none" xmlns="http://www.w3.org/2000/svg">
<path d="M7.5 5C10.5376 5 13 7.46243 13 10.5C13 11.0711 12.9125 11.6218 12.751 12.1396L18.252 17.6406C19.2492 18.6379 19.2492 20.2547 18.252 21.252C17.2547 22.2492 15.6379 22.2492 14.6406 21.252L9.13965 15.751C8.62175 15.9125 8.07111 16 7.5 16C4.46243 16 2 13.5376 2 10.5C2 9.91382 2.09188 9.34912 2.26172 8.81934L4.86328 11.417L7.19434 10.6406L7.63965 10.1943L8.41699 7.86621L5.81152 5.26367C6.34344 5.09232 6.9111 5 7.5 5ZM12.0869 14.0752C11.7621 13.7589 11.2434 13.7625 10.9229 14.083C10.5964 14.4096 10.5999 14.9395 10.9307 15.2617L15.915 20.0908C16.2385 20.414 16.7635 20.414 17.0869 20.0908C17.4103 19.7674 17.4102 19.2425 17.0869 18.9189L12.0869 14.0752ZM20 15.25H18V9.25H20V15.25ZM19 5C19.6904 5 20.25 5.55964 20.25 6.25C20.25 6.94036 19.6904 7.5 19 7.5C18.3096 7.5 17.75 6.94036 17.75 6.25C17.75 5.55964 18.3096 5 19 5Z" fill="black"/>
</svg>
