<svg xmlns="http://www.w3.org/2000/svg" width="512" height="512" viewBox="0 0 512 512"><path d="M426.666667,64 L426.666667,341.333333 L256,341.333333 L256,64 L426.666667,64 Z M298.666667,0 L298.666667,42.6666667 L42.6666667,42.6666667 L42.6666667,170.666667 L234.666667,170.666667 L234.666667,213.333333 L170.666667,213.333333 L170.666667,256 L213.333333,256 L213.333333,298.666667 L85.3333333,298.666667 L85.3333333,256 L128,256 L128,213.333333 L0,213.333333 L0,0 L298.666667,0 Z M384,106.666667 L298.666667,106.666667 L298.666667,298.666667 L384,298.666667 L384,106.666667 Z M362.666667,128 L362.666667,170.666667 L320,170.666667 L320,128 L362.666667,128 Z" transform="translate(42.667 85.333)"/></svg>