<svg xmlns="http://www.w3.org/2000/svg" width="512" height="512" viewBox="0 0 512 512"><path fill-rule="evenodd" d="M94.1698893,97.8301107 L173.254834,176.915055 L188.339779,192 L158.169889,222.169889 L143.084945,207.084945 L115.503,179.513 L115.503223,277.333333 C115.503223,312.679557 144.156999,341.333333 179.503223,341.333333 L286.169889,341.333333 L286.169889,384 L179.503223,384 C120.592849,384 72.836556,336.243707 72.836556,277.333333 L72.836,179.513 L30.1698893,222.169889 L7.10542736e-15,192 L94.1698893,97.8301107 Z M264.836556,1.42108547e-14 C323.746929,1.42108547e-14 371.503223,47.7562934 371.503223,106.666667 L371.503,204.485 L414.169889,161.830111 L444.339779,192 L350.169889,286.169889 L271.084945,207.084945 L256,192 L286.169889,161.830111 L301.254834,176.915055 L328.836,204.487 L328.836556,106.666667 C328.836556,71.3204427 300.18278,42.6666667 264.836556,42.6666667 L158.169889,42.6666667 L158.169889,1.42108547e-14 L264.836556,1.42108547e-14 Z" transform="translate(33.83 64)"/></svg>