<svg width="512" height="512" viewBox="0 0 512 512" fill="none" xmlns="http://www.w3.org/2000/svg">
<path fill-rule="evenodd" clip-rule="evenodd" d="M256 469.333C373.821 469.333 469.333 373.82 469.333 255.999C469.333 138.179 373.821 42.666 256 42.666C138.179 42.666 42.6667 138.179 42.6667 255.999C42.6667 373.82 138.179 469.333 256 469.333ZM166.25 233.583V341.333H196.125V233.583H226V210.833H196.125V204.958C196.125 194.124 197.458 186.416 200.125 181.833C202.875 177.249 207.417 174.958 213.75 174.958C218.5 174.958 223.542 176.166 228.875 178.583L231.25 154.708C222.833 152.374 214.917 151.208 207.5 151.208C191.417 151.208 180.042 156.541 173.375 167.208C168.625 174.874 166.25 186.541 166.25 202.208V210.833H145.375V233.583H166.25ZM287.125 275.333L236.75 341.333H269.75L303.75 295.458L336 341.333H370.375L320.75 273.958L369.5 210.833H336.375L304.25 254.333L274.125 210.833H239.625L287.125 275.333Z" fill="white"/>
</svg>
