<svg width="512" height="512" viewBox="0 0 512 512" fill="none" xmlns="http://www.w3.org/2000/svg">
<path fill-rule="evenodd" clip-rule="evenodd" d="M426.667 256C426.667 350.257 350.257 426.667 256 426.667C161.743 426.667 85.3333 350.257 85.3333 256C85.3333 161.744 161.743 85.3337 256 85.3337C350.257 85.3337 426.667 161.744 426.667 256ZM469.333 256C469.333 373.821 373.821 469.334 256 469.334C138.179 469.334 42.6667 373.821 42.6667 256C42.6667 138.18 138.179 42.667 256 42.667C373.821 42.667 469.333 138.18 469.333 256ZM166.25 233.584V341.334H196.125V233.584H226V210.834H196.125V204.959C196.125 194.125 197.458 186.417 200.125 181.834C202.875 177.25 207.417 174.959 213.75 174.959C218.5 174.959 223.542 176.167 228.875 178.584L231.25 154.709C222.833 152.375 214.917 151.209 207.5 151.209C191.417 151.209 180.042 156.542 173.375 167.209C168.625 174.875 166.25 186.542 166.25 202.209V210.834H145.375V233.584H166.25ZM287.125 275.334L236.75 341.334H269.75L303.75 295.459L336 341.334H370.375L320.75 273.959L369.5 210.834H336.375L304.25 254.334L274.125 210.834H239.625L287.125 275.334Z" fill="white"/>
</svg>
