<svg width="512" height="512" viewBox="0 0 512 512" fill="none" xmlns="http://www.w3.org/2000/svg">
<path fill-rule="evenodd" clip-rule="evenodd" d="M379.697 277.331L379.709 296.552C392.076 299.693 403.104 306.114 411.782 314.82L428.693 305.218L446.007 334.777L429.13 344.405C430.762 350.216 431.635 356.341 431.635 362.664C431.635 368.987 430.762 375.112 429.13 380.923L446.007 390.551L428.693 420.111L411.782 410.509C403.104 419.215 392.076 425.636 379.709 428.776L379.697 447.998H345.073L345.077 428.78C332.704 425.642 321.67 419.219 312.987 410.509L296.076 420.111L278.762 390.551L295.643 380.941C294.009 375.123 293.135 368.994 293.135 362.664C293.135 356.335 294.009 350.206 295.643 344.388L278.762 334.777L296.076 305.218L312.987 314.82C321.67 306.11 332.704 299.686 345.077 296.548L345.073 277.331H379.697ZM145.129 320.005C155.987 338.857 171.804 355.189 192 366.849C212.862 378.894 235.706 384.398 258.157 383.999C261.231 399.227 267.583 413.299 276.434 425.432C241.016 429.747 203.95 423.016 170.666 403.799C143.739 388.253 122.652 366.476 108.171 341.343L145.129 320.005ZM362.385 328.531C343.261 328.531 327.761 343.812 327.761 362.664C327.761 381.517 343.261 396.798 362.385 396.798C381.508 396.798 397.009 381.517 397.009 362.664C397.009 343.812 381.508 328.531 362.385 328.531ZM256.003 85.3021L256.003 127.977C234.248 127.955 212.195 133.487 192 145.146C159.169 164.101 137.912 195.403 130.708 229.8L157.907 214.097L179.241 251.047L86.8646 304.381L33.5312 212.004L70.4817 190.671L88.7046 222.234C98.071 175.913 126.522 133.683 170.666 108.196C197.594 92.6493 226.996 85.276 256.003 85.3021ZM405.333 85.3309V127.998H368.887C404.32 159.27 426.666 205.024 426.666 255.998C426.666 262.902 426.256 269.711 425.459 276.401C413.318 267.545 399.234 261.19 383.967 258.096L384 255.998C384 218.088 367.52 184.028 341.333 160.59V191.998H298.666V85.3309H405.333Z" fill="black"/>
</svg>
