<svg width="512" height="512" viewBox="0 0 512 512" fill="none" xmlns="http://www.w3.org/2000/svg">
<path fill-rule="evenodd" clip-rule="evenodd" d="M106.667 106.667L106.667 320H405.333V106.667H106.667ZM64 362.667H85.3333H106.667H234.667V405.333H192V448H320V405.333H277.333V362.667H405.333H448V320V106.667V64H405.333H106.667H85.3333H64L64 362.667ZM337.26 186.297L322.091 195.054C323.704 200.872 324.566 207.002 324.566 213.333C324.566 219.665 323.704 225.794 322.092 231.612L337.26 240.369C335.593 245.364 333.476 250.153 330.959 254.688L329.522 257.176C326.799 261.715 323.666 265.979 320.174 269.918L305.009 261.163C296.45 269.879 285.569 276.308 273.368 279.449V296.959C267.853 298.079 262.144 298.667 256.298 298.667C250.455 298.667 244.748 298.079 239.235 296.96V279.45C227.032 276.31 216.149 269.88 207.589 261.162L192.423 269.918C188.977 266.032 185.881 261.828 183.183 257.357L181.535 254.503C179.062 250.023 176.981 245.296 175.337 240.369L190.507 231.611C188.895 225.793 188.033 219.664 188.033 213.333C188.033 207.003 188.895 200.873 190.507 195.055L175.337 186.297C176.978 181.378 179.056 176.659 181.523 172.185L183.196 169.288C185.891 164.825 188.983 160.628 192.423 156.748L207.589 165.504C216.15 156.787 227.032 150.357 239.235 147.217V129.706C244.748 128.587 250.455 128 256.298 128C262.144 128 267.853 128.588 273.368 129.708V147.218C285.569 150.359 296.449 156.787 305.009 165.503L320.173 156.748C323.66 160.68 326.788 164.937 329.509 169.468L330.972 172.002C333.484 176.53 335.595 181.311 337.26 186.297ZM281.902 213.334C281.902 227.472 270.44 238.934 256.302 238.934C242.163 238.934 230.702 227.472 230.702 213.334C230.702 199.195 242.163 187.734 256.302 187.734C270.44 187.734 281.902 199.195 281.902 213.334Z" fill="white"/>
</svg>
