<svg width="512" height="512" viewBox="0 0 512 512" fill="none" xmlns="http://www.w3.org/2000/svg">
<path fill-rule="evenodd" clip-rule="evenodd" d="M64 64H448V362.667H277.333V405.333H320V448H192V405.333H234.667V362.667H64V64ZM330.311 192.77L347.378 182.917C345.513 177.328 343.147 171.969 340.335 166.891L338.625 163.93C335.573 158.853 332.064 154.083 328.155 149.674L311.094 159.525C301.464 149.72 289.224 142.488 275.499 138.954V119.254C269.294 117.995 262.873 117.333 256.296 117.333C249.722 117.333 243.302 117.994 237.099 119.253V138.952C223.371 142.485 211.128 149.718 201.497 159.525L184.437 149.675C180.558 154.05 177.073 158.782 174.037 163.815L172.193 167.008C169.409 172.052 167.066 177.372 165.215 182.918L182.279 192.77C180.465 199.315 179.495 206.211 179.495 213.334C179.495 220.456 180.465 227.352 182.279 233.896L165.214 243.748C167.071 249.31 169.422 254.645 172.216 259.701L174.012 262.81C177.054 267.859 180.547 272.604 184.436 276.991L201.496 267.142C211.127 276.949 223.37 284.182 237.099 287.715V307.413C243.302 308.672 249.722 309.333 256.296 309.333C262.873 309.333 269.294 308.672 275.499 307.413V287.713C289.225 284.18 301.465 276.947 311.095 267.142L328.156 276.992C332.076 272.57 335.594 267.784 338.653 262.691L340.309 259.822C343.133 254.73 345.507 249.355 347.378 243.749L330.312 233.896C332.126 227.352 333.095 220.456 333.095 213.334C333.095 206.211 332.126 199.315 330.311 192.77ZM256.304 242.134C272.21 242.134 285.104 229.24 285.104 213.334C285.104 197.428 272.21 184.534 256.304 184.534C240.398 184.534 227.504 197.428 227.504 213.334C227.504 229.24 240.398 242.134 256.304 242.134Z" fill="white"/>
</svg>
