<svg width="512" height="512" viewBox="0 0 512 512" fill="none" xmlns="http://www.w3.org/2000/svg">
<path fill-rule="evenodd" clip-rule="evenodd" d="M320 64H85.3334H42.6667V106.667V277.333V320H85.3334H181.333V362.667H149.333V405.333H256V362.667H224V320H256V277.333H85.3334V106.667H320V256H362.667V106.667V64H320ZM426.667 277.333H277.333V426.667H298.667V298.667H426.667V277.333ZM469.333 320H320V469.333H469.333V320ZM448 405.333V384H405.333V341.333H384V384H341.333V405.333H384V448H405.333V405.333H448ZM298.667 128H106.667V256H298.667V128Z" fill="white"/>
</svg>
