<svg width="512" height="512" viewBox="0 0 512 512" fill="none" xmlns="http://www.w3.org/2000/svg">
<path fill-rule="evenodd" clip-rule="evenodd" d="M261.695 75.8086L256.449 74.6667L85.3335 111.948V236.22L85.6068 247.548C90.3073 344.222 154.658 402.11 203.006 432.184L205.577 433.577L277.11 266.667H181.333L261.695 75.8086ZM243.463 453.489L244.322 453.873L250.047 456.252L256.449 458.667L262.575 456.359L274.99 450.994L283.171 447.058L292.41 442.247L307.828 433.327L318.865 426.203C367.657 393.235 427.176 332.758 426.615 234.09L426.496 211.211L426.446 127.255L426.667 111.723L304.102 85.0406L245.593 224H341.816L243.463 453.489Z" fill="black"/>
</svg>
