<svg width="512" height="512" viewBox="0 0 512 512" fill="none" xmlns="http://www.w3.org/2000/svg">
<path fill-rule="evenodd" clip-rule="evenodd" d="M318.458 50.9451L279.135 34.388L261.695 75.8086L256.449 74.6666L85.3335 111.948V236.22L85.6068 247.548C90.3073 344.222 154.658 402.11 203.006 432.184L205.53 433.687L193.855 460.93L233.072 477.737L341.816 224H245.593L318.458 50.9451ZM222.518 394.048L277.11 266.667H181.333L242.511 121.371L128 146.32V235.705L128.248 245.969C132.06 320.204 180.137 366.939 222.518 394.048ZM284.99 446.11L292.41 442.247L307.828 433.327L318.865 426.203C367.657 393.235 427.176 332.758 426.615 234.09L426.496 211.211L426.446 127.255L426.667 111.723L339.114 92.6626L322.272 132.662L383.791 146.055L383.828 211.236L383.839 213.333H384.752L383.85 215.437L383.949 234.333C384.326 300.644 351.19 345.895 315.131 375.781L284.99 446.11Z" fill="black"/>
</svg>
