<svg width="512" height="512" viewBox="0 0 512 512" fill="none" xmlns="http://www.w3.org/2000/svg">
<path fill-rule="evenodd" clip-rule="evenodd" d="M192 42.668V96.0013H234.667V42.668H192ZM281.208 115.283L318.921 77.5702L349.091 107.74L311.378 145.452L281.208 115.283ZM145.442 115.283L107.729 77.5703L77.5593 107.74L115.272 145.453L145.442 115.283ZM309.333 213.335C309.333 214.697 309.305 216.052 309.249 217.401C289.548 223.105 272.276 234.511 259.336 249.691C250.389 247.381 241.018 246.155 231.381 246.155C198.197 246.155 168.396 260.64 147.955 283.633C129.117 266.105 117.333 241.096 117.333 213.335C117.333 160.315 160.314 117.335 213.333 117.335C266.353 117.335 309.333 160.315 309.333 213.335ZM338.048 213.335C354.555 213.335 370.158 217.203 384 224.083V192.001H330.667V213.594C333.105 213.422 335.566 213.335 338.048 213.335ZM122.185 334.646C124.709 322.654 129.159 311.372 135.195 301.137L115.275 281.217L77.5625 318.929L107.732 349.099L122.185 334.646ZM42.6667 192.001H96V234.668H42.6667V192.001ZM420.077 318.781C420.094 318.096 420.103 317.408 420.103 316.719C420.103 271.404 383.367 234.668 338.051 234.668C307.983 234.668 281.693 250.841 267.405 274.963C256.371 270.155 244.189 267.488 231.385 267.488C181.537 267.488 141.128 307.898 141.128 357.745C141.128 407.592 181.537 448.001 231.385 448.001H403.692C439.945 448.001 469.333 418.613 469.333 382.36C469.333 351.765 448.402 326.059 420.077 318.781Z" fill="white"/>
</svg>
