<svg width="512" height="512" viewBox="0 0 512 512" fill="none" xmlns="http://www.w3.org/2000/svg">
<path fill-rule="evenodd" clip-rule="evenodd" d="M192 42.668V96.0013H234.667V42.668H192ZM281.208 115.283L318.921 77.5702L349.091 107.74L311.378 145.452L281.208 115.283ZM145.442 115.283L107.729 77.5703L77.5593 107.74L115.272 145.453L145.442 115.283ZM266.667 213.335C266.667 226.741 261.72 238.992 253.553 248.362C255.499 248.755 257.427 249.198 259.336 249.691C272.276 234.511 289.548 223.105 309.249 217.401C309.305 216.052 309.333 214.697 309.333 213.335C309.333 160.315 266.353 117.335 213.333 117.335C160.314 117.335 117.333 160.315 117.333 213.335C117.333 241.096 129.117 266.105 147.955 283.633C157.709 272.662 169.593 263.628 182.96 257.18C169.085 247.55 160 231.503 160 213.335C160 183.879 183.878 160.001 213.333 160.001C242.789 160.001 266.667 183.879 266.667 213.335ZM338.048 213.335C354.555 213.335 370.158 217.203 384 224.083V192.001H330.667V213.594C333.105 213.422 335.566 213.335 338.048 213.335ZM122.185 334.646C124.709 322.654 129.159 311.372 135.195 301.137L115.275 281.217L77.5625 318.929L107.732 349.099L122.185 334.646ZM42.6667 192.001H96V234.668H42.6667V192.001ZM377.42 317.729L376.584 351.659L409.456 360.105C419.378 362.655 426.663 371.71 426.663 382.36C426.663 395.049 416.377 405.335 403.689 405.335H231.381C205.098 405.335 183.792 384.028 183.792 357.745C183.792 331.462 205.098 310.155 231.381 310.155C238.212 310.155 244.6 311.568 250.358 314.078L284.906 329.131L304.111 296.707C311.036 285.018 323.667 277.335 338.048 277.335C359.8 277.335 377.433 294.968 377.433 316.719C377.433 317.057 377.429 317.394 377.42 317.729ZM231.381 267.488C244.186 267.488 256.368 270.155 267.402 274.963C281.69 250.841 307.98 234.668 338.048 234.668C383.364 234.668 420.099 271.404 420.099 316.719C420.099 317.408 420.091 318.096 420.074 318.781C448.398 326.059 469.33 351.765 469.33 382.36C469.33 418.613 439.942 448.001 403.689 448.001H231.381C181.534 448.001 141.125 407.592 141.125 357.745C141.125 307.898 181.534 267.488 231.381 267.488Z" fill="white"/>
</svg>
