<svg xmlns="http://www.w3.org/2000/svg" width="512" height="512" viewBox="0 0 512 512"><path fill-rule="evenodd" d="M362.666667,256 L362.666,320 L426.666667,320 L426.666667,362.666667 L362.666,362.666 L362.666667,426.666667 L320,426.666667 L320,362.666 L256,362.666667 L256,320 L320,320 L320,256 L362.666667,256 Z M170.666667,0 L341.333333,170.666667 L170.666667,341.333333 L0,170.666667 L0,0 L170.666667,0 Z M152.981333,42.6666667 L42.6666667,42.6666667 L42.6666667,152.981333 L170.666667,280.981333 L280.981333,170.666667 L152.981333,42.6666667 Z M96,64 C113.673112,64 128,78.326888 128,96 C128,113.673112 113.673112,128 96,128 C78.326888,128 64,113.673112 64,96 C64,78.326888 78.326888,64 96,64 Z" transform="translate(64 64)"/></svg>