<svg width="512" height="512" viewBox="0 0 512 512" fill="none" xmlns="http://www.w3.org/2000/svg">
<path fill-rule="evenodd" clip-rule="evenodd" d="M192 63.6665C192 52.0685 201.402 42.6665 213 42.6665H299C310.598 42.6665 320 52.0685 320 63.6665V277.325C345.908 296.786 362.667 327.769 362.667 362.667C362.667 421.577 314.91 469.333 256 469.333C197.09 469.333 149.333 421.577 149.333 362.667C149.333 327.769 166.092 296.786 192 277.325V63.6665ZM341.333 63.9998H384V85.3332H341.333V63.9998ZM384 128H341.333V149.333H384V128ZM341.333 192H384V213.333H341.333V192ZM384 256H341.333V277.333H384V256ZM256 405.333C279.564 405.333 298.667 386.231 298.667 362.667C298.667 339.102 279.564 320 256 320C232.436 320 213.333 339.102 213.333 362.667C213.333 386.231 232.436 405.333 256 405.333Z" fill="white"/>
</svg>
