<svg width="512" height="512" viewBox="0 0 512 512" fill="none" xmlns="http://www.w3.org/2000/svg">
<path fill-rule="evenodd" clip-rule="evenodd" d="M341.333 33.8301L452.418 144.915L422.248 175.085L362.645 115.515L362.667 256C362.667 301.7 326.742 339.01 281.592 341.229L192 341.333V298.667H277.333C299.826 298.667 318.254 281.261 319.883 259.184L320 256L319.979 115.515L260.418 175.085L230.248 144.915L341.333 33.8301ZM256 42.6667C261.245 42.6667 266.446 42.8559 271.596 43.228L227.044 87.7797C146.579 101.532 85.3333 171.614 85.3333 256C85.3333 350.257 161.743 426.667 256 426.667C350.198 426.526 426.526 350.198 426.667 256C426.667 248.061 426.125 240.248 425.075 232.598L460.981 196.692C466.419 215.521 469.333 235.42 469.333 256C469.157 373.748 373.748 469.157 256 469.333C138.179 469.333 42.6666 373.821 42.6666 256C42.6666 138.179 138.179 42.6667 256 42.6667Z" fill="white"/>
</svg>
