<svg xmlns="http://www.w3.org/2000/svg" width="512" height="512" viewBox="0 0 512 512"><path fill-rule="evenodd" d="M358.165333,251.52 L388.330667,281.685333 L328.746667,341.269333 L388.330667,400.853333 L358.165333,431.018667 L298.581333,371.434667 L238.997333,431.018667 L208.832,400.853333 L268.416,341.269333 L208.832,281.685333 L238.997333,251.52 L298.581333,311.104 L358.165333,251.52 Z M186.666667,192 C238.424331,192 281.982064,228.11117 294.82458,277.174933 L238.997324,221.350111 L217.904744,242.443237 C209.595408,238.046988 200.340802,235.351207 190.574699,234.780576 L186.666667,234.666667 L112,234.666667 C75.2924236,234.666667 44.8342773,264.693102 42.7773631,303.0585 L42.6666667,307.2 L42.6666667,341.333333 L238.182,341.333 L195.516,383.999 L7.10542736e-15,384 L7.10542736e-15,307.2 C7.10542736e-15,245.167377 47.6682427,194.586369 107.383368,192.096089 L112,192 L186.666667,192 Z M149.333333,7.10542736e-15 C190.570595,7.10542736e-15 224,33.4294053 224,74.6666667 C224,114.529353 192.762078,147.096031 153.430084,149.222851 L149.333333,149.333333 C108.096072,149.333333 74.6666667,115.903928 74.6666667,74.6666667 C74.6666667,34.8039807 105.904589,2.23730242 145.236582,0.110482405 L149.333333,7.10542736e-15 Z M149.333333,42.6666667 C131.660221,42.6666667 117.333333,56.9935547 117.333333,74.6666667 C117.333333,92.3397787 131.660221,106.666667 149.333333,106.666667 C167.006445,106.666667 181.333333,92.3397787 181.333333,74.6666667 C181.333333,56.9935547 167.006445,42.6666667 149.333333,42.6666667 Z" transform="translate(42.667 42.667)"/></svg>