<svg xmlns="http://www.w3.org/2000/svg" width="512" height="512" viewBox="0 0 512 512"><path fill-rule="evenodd" d="M384,138.666667 L384,352 C312.888889,352 248.888889,373.333333 192,416 C135.111111,373.333333 71.1111111,352 1.42108547e-14,352 L1.42108547e-14,138.666667 C71.1111111,138.666667 135.111111,160 192,202.666667 C248.888889,160 312.888889,138.666667 384,138.666667 Z M192,-1.42108547e-14 C233.237261,-1.42108547e-14 266.666667,33.4294053 266.666667,74.6666667 C266.666667,115.903928 233.237261,149.333333 192,149.333333 C150.762739,149.333333 117.333333,115.903928 117.333333,74.6666667 C117.333333,33.4294053 150.762739,-1.42108547e-14 192,-1.42108547e-14 Z" transform="translate(64 53.333)"/></svg>