<svg width="512" height="512" viewBox="0 0 512 512" fill="none" xmlns="http://www.w3.org/2000/svg">
<path fill-rule="evenodd" clip-rule="evenodd" d="M405.3 194.679C405.322 193.788 405.333 192.895 405.333 191.999C405.333 133.088 357.577 85.332 298.667 85.332C259.578 85.332 225.401 106.357 206.826 137.715C192.482 131.465 176.646 127.999 160 127.999C95.1986 127.999 42.6667 180.531 42.6667 245.332C42.6667 292.218 70.1672 332.681 109.918 351.471C119.265 320.9 147.702 298.665 181.333 298.665C193.763 298.665 205.483 301.702 215.792 307.075C214.188 300.986 213.333 294.592 213.333 287.999C213.333 246.761 246.763 213.332 288 213.332C329.237 213.332 362.667 246.761 362.667 287.999C362.667 311.362 351.936 332.219 335.135 345.91C345.133 349.592 354.125 355.351 361.589 362.665H384C431.128 362.665 469.333 324.46 469.333 277.332C469.333 237.558 442.122 204.14 405.3 194.679ZM306.475 277.225L323.904 247.038L305.428 236.371L287.999 266.559L270.57 236.371L252.095 247.038L269.524 277.225H234.667V298.559H269.524L252.095 328.747L270.57 339.414L287.999 309.226L305.428 339.414L323.904 328.747L306.474 298.559H341.333V277.225H306.475ZM217.237 332.371L199.808 362.559H234.667V383.892H199.808L217.237 414.08L198.762 424.747L181.333 394.559L163.904 424.747L145.428 414.08L162.858 383.892H128V362.559H162.857L145.428 332.371L163.904 321.704L181.333 351.892L198.762 321.704L217.237 332.371ZM327.808 405.225L345.237 375.038L326.762 364.371L309.333 394.559L291.904 364.371L273.428 375.038L290.857 405.225H256V426.559H290.858L273.428 456.747L291.904 467.414L309.333 437.226L326.762 467.414L345.237 456.747L327.808 426.559H362.667V405.225H327.808Z" fill="white"/>
</svg>
