<svg width="512" height="512" viewBox="0 0 512 512" fill="none" xmlns="http://www.w3.org/2000/svg">
<path fill-rule="evenodd" clip-rule="evenodd" d="M298.667 85.332C357.577 85.332 405.333 133.088 405.333 191.999L405.3 194.682C442.115 204.131 469.333 237.553 469.333 277.332C469.333 324.46 431.128 362.665 384 362.665H361.589C354.125 355.351 345.133 349.592 335.135 345.91C343.701 338.93 350.689 330.087 355.481 319.999H384C407.564 319.999 426.667 300.896 426.667 277.332C426.667 257.746 413.34 240.795 394.693 236.009L361.808 227.569L362.667 191.999C362.667 156.652 334.013 127.999 298.667 127.999C275.765 127.999 255.018 140.088 243.569 159.444L224.368 191.907L189.795 176.835C180.5 172.783 170.438 170.665 160 170.665C118.763 170.665 85.3333 204.095 85.3333 245.332C85.3333 277.5 105.676 304.917 134.198 315.421C122.867 324.654 114.297 337.147 109.918 351.471C70.1672 332.681 42.6667 292.218 42.6667 245.332C42.6667 180.531 95.1986 127.999 160 127.999C176.653 127.999 192.496 131.468 206.845 137.723C225.395 106.361 259.575 85.332 298.667 85.332ZM306.475 277.225L323.904 247.038L305.428 236.371L287.999 266.559L270.57 236.371L252.095 247.038L269.524 277.225H234.667V298.559H269.524L252.095 328.747L270.57 339.414L287.999 309.226L305.428 339.414L323.904 328.747L306.474 298.559H341.333V277.225H306.475ZM217.237 332.371L199.808 362.559H234.667V383.892H199.808L217.237 414.08L198.762 424.747L181.333 394.559L163.904 424.747L145.428 414.08L162.858 383.892H128V362.559H162.857L145.428 332.371L163.904 321.704L181.333 351.892L198.762 321.704L217.237 332.371ZM327.808 405.225L345.237 375.038L326.762 364.371L309.333 394.559L291.904 364.371L273.428 375.038L290.857 405.225H256V426.559H290.858L273.428 456.747L291.904 467.414L309.333 437.226L326.762 467.414L345.237 456.747L327.808 426.559H362.667V405.225H327.808Z" fill="white"/>
</svg>
