<svg xmlns="http://www.w3.org/2000/svg" width="512" height="512" viewBox="0 0 512 512"><path fill-rule="evenodd" d="M262.250667,155.669333 L292.416,185.834667 L243.498667,234.752 L292.416,283.669333 L262.250667,313.834667 L213.333333,264.917333 L164.416,315.968 L134.250667,285.802667 L183.168,234.752 L134.250667,185.834667 L164.416,155.669333 L213.333333,204.586667 L262.250667,155.669333 Z M256,2.84217094e-14 C314.910373,2.84217094e-14 362.666667,47.7562934 362.666667,106.666667 L362.633568,109.350223 C399.447831,118.798865 426.666667,152.220782 426.666667,192 C426.666667,239.128299 388.461632,277.333333 341.333333,277.333333 L316.25,277.333 L273.668556,234.752 L273.753,234.666 L341.333333,234.666667 C364.897483,234.666667 384,215.564149 384,192 C384,172.414356 370.673611,155.463301 352.026648,150.677426 L319.141815,142.2373 L320,106.666667 C320,71.3204427 291.346224,42.6666667 256,42.6666667 C233.098575,42.6666667 212.350835,54.7561898 200.902251,74.11235 L181.701619,106.574924 L147.128167,91.5031172 C137.833428,87.4512072 127.770871,85.3333333 117.333333,85.3333333 C76.096072,85.3333333 42.6666667,118.762739 42.6666667,160 C42.6666667,201.237261 76.096072,234.666667 117.333333,234.666667 L152.912,234.666 L153.354173,235.108063 L113.169805,277.260841 C50.2966653,275.068103 -2.13162821e-14,223.40776 -2.13162821e-14,160 C-2.13162821e-14,95.1985894 52.5319227,42.6666667 117.333333,42.6666667 C133.98644,42.6666667 149.829242,46.1359909 164.178407,52.3913064 C182.728434,21.0287122 216.908457,2.84217094e-14 256,2.84217094e-14 Z" transform="translate(42.667 106.667)"/></svg>