<svg xmlns="http://www.w3.org/2000/svg" width="512" height="512" viewBox="0 0 512 512"><path fill-rule="evenodd" d="M298.666667,348.514044 L298.666667,391.180711 L7.10542736e-15,391.180711 L7.10542736e-15,348.514044 L298.666667,348.514044 Z M379.498667,151.253333 L409.664,181.418667 L350.08,241.002667 L409.664,300.586667 L379.498667,330.752 L319.914667,271.168 L260.330667,330.752 L230.165333,300.586667 L289.749333,241.002667 L230.165333,181.418667 L260.330667,151.253333 L319.914667,210.837333 L379.498667,151.253333 Z M149.341832,1.42108547e-14 L288.008499,115.356096 L261.324459,147.408128 L170.188738,71.388608 L170.188738,283.733333 L128.494927,283.733333 L128.494927,71.388608 L37.3592107,147.408128 L10.6751655,115.356096 L149.341832,1.42108547e-14 Z" transform="translate(42.667 57.6)"/></svg>